<?xml version="1.0" standalone="no"?><!DOCTYPE svg PUBLIC "-//W3C//DTD SVG 1.1//EN" "http://www.w3.org/Graphics/SVG/1.1/DTD/svg11.dtd"><svg t="1672459348251" class="icon" viewBox="0 0 1024 1024" version="1.1" xmlns="http://www.w3.org/2000/svg" p-id="1488" xmlns:xlink="http://www.w3.org/1999/xlink" width="128" height="128"><path d="M512 153.6a307.3536 307.3536 0 0 1 292.2496 212.3264 256.0512 256.0512 0 0 1-36.1984 503.1936L768 870.4H256v-1.28a256 256 0 0 1-36.2496-503.1936A307.2512 307.2512 0 0 1 512 153.6z m0 76.8a230.4512 230.4512 0 0 0-215.552 148.8384l-3.584 10.3424-13.2096 40.6016-41.4208 10.24a179.3024 179.3024 0 0 0 15.6672 351.0784l9.728 1.2288 9.216 0.8704h478.3104l9.2672-0.8704a179.2 179.2 0 0 0 160.9216-168.4992L921.6 614.4a179.3024 179.3024 0 0 0-126.464-171.3152l-9.3696-2.56-41.3696-10.2912-13.1584-40.6016A230.5024 230.5024 0 0 0 512 230.4z" fill="#FCFFE7" p-id="1489"></path><path d="M512 371.2a38.4 38.4 0 0 1 38.0416 33.1776L550.4 409.6v170.2912l27.2896-27.2896a38.4 38.4 0 0 1 50.3808-3.4304l3.9424 3.4304a38.4 38.4 0 0 1 3.4304 50.3808l-3.4304 3.9424-94.1056 94.1056a38.4 38.4 0 0 1-50.3808 3.4304l-3.9424-3.4304-94.1568-94.1056a38.4 38.4 0 0 1 50.3808-57.7536l3.9424 3.4304 29.8496 29.8496V409.6a38.4 38.4 0 0 1 38.4-38.4z" fill="#FCFFE7" p-id="1490"></path></svg>