<?xml version="1.0" standalone="no"?><!DOCTYPE svg PUBLIC "-//W3C//DTD SVG 1.1//EN" "http://www.w3.org/Graphics/SVG/1.1/DTD/svg11.dtd"><svg t="1672459283043" class="icon" viewBox="0 0 1024 1024" version="1.1" xmlns="http://www.w3.org/2000/svg" p-id="912" width="128" height="128" xmlns:xlink="http://www.w3.org/1999/xlink"><path d="M579.2256 95.1808l286.72 187.4432A122.88 122.88 0 0 1 921.6 385.536V798.72a122.88 122.88 0 0 1-122.88 122.88H225.28A122.88 122.88 0 0 1 102.4 798.72V385.4848A122.88 122.88 0 0 1 158.0544 282.624l286.72-187.4432a122.88 122.88 0 0 1 134.4512 0zM492.032 156.4672l-5.2736 2.9696-286.72 187.4944a46.08 46.08 0 0 0-20.48 32.768L179.2 385.536V798.72a46.08 46.08 0 0 0 40.2944 45.7216l5.7856 0.3584h573.44a46.08 46.08 0 0 0 45.7216-40.2944l0.3584-5.7856V385.4848a46.08 46.08 0 0 0-16.2304-35.1232l-4.608-3.4304-286.72-187.4944a46.08 46.08 0 0 0-45.2096-2.9696z m202.1376 516.4544a38.4 38.4 0 0 1 0 76.8H329.8304a38.4 38.4 0 1 1 0-76.8h364.3392z" fill="#FCFFE7" p-id="913"></path></svg>