<?xml version="1.0" standalone="no"?><!DOCTYPE svg PUBLIC "-//W3C//DTD SVG 1.1//EN" "http://www.w3.org/Graphics/SVG/1.1/DTD/svg11.dtd"><svg t="1672459331203" class="icon" viewBox="0 0 1024 1024" version="1.1" xmlns="http://www.w3.org/2000/svg" p-id="1226" xmlns:xlink="http://www.w3.org/1999/xlink" width="128" height="128"><path d="M871.5264 452.8128h-0.1536l-14.592-3.3792-1.28-0.3584a171.7248 171.7248 0 0 1-117.248-204.5952l0.3584-1.6384 4.4032-13.2096v-0.2048c0.1024-0.3584 0.1024-0.8192 0.1024-1.3824a19.2512 19.2512 0 0 0-3.6352-10.5984 523.008 523.008 0 0 0-42.0864-27.0336 562.9952 562.9952 0 0 0-35.9424-19.1488 193.8432 193.8432 0 0 0-8.6528-3.8912l-0.1536-0.0512a18.3808 18.3808 0 0 0-12.032 3.072l-10.0864 10.8544-0.8704 0.8192a170.24 170.24 0 0 1-117.5552 46.7968c-44.544 0-86.528-17.1008-118.0672-47.2064l-0.8192-0.768-9.728-10.496-0.1024-0.1024c-1.792-1.8944-9.3696-3.7888-11.9808-2.9696a548.608 548.608 0 0 0-85.6576 49.4592l-1.0752 0.8192-0.1024 0.1024-0.1536 0.1536a18.3296 18.3296 0 0 0-3.2768 11.9296l4.1984 13.824 0.3072 1.1776a172.032 172.032 0 0 1-18.2784 125.7472 170.5472 170.5472 0 0 1-99.7376 78.7456l-1.2288 0.3584-1.2288 0.3072-12.8 2.8672c-2.56 0.5632-7.9872 6.2464-8.6016 8.9088l-0.2048 1.3312a181.248 181.248 0 0 0-0.768 8.192c-0.8192 10.3424-1.3312 23.808-1.3312 40.704 0 16.8448 0.512 30.3104 1.3312 40.6528a180.0192 180.0192 0 0 0 0.9728 9.5232c0.6144 2.7136 5.9904 8.2944 8.5504 8.8576h0.1024l13.7728 3.2256 1.1264 0.3584c41.9328 12.3904 77.7728 40.2432 99.9424 78.9504 22.1696 38.656 28.3648 83.6096 18.176 126.0032l-0.256 1.024-3.9936 13.4656-0.0512 0.1536v0.2048a19.2512 19.2512 0 0 0 3.584 11.9808 181.9136 181.9136 0 0 0 7.6288 5.5296c8.4992 5.9392 19.9168 13.1584 34.4576 21.5552 14.592 8.448 26.4704 14.7456 35.84 19.2a176.384 176.384 0 0 0 8.6016 3.84h0.2048a18.3808 18.3808 0 0 0 12.0832-3.1744l9.5744-10.24 0.8704-0.8192a170.9568 170.9568 0 0 1 118.1184-47.104c44.544 0 86.528 17.2032 118.1696 47.36l0.8192 0.8192 9.5744 10.24 0.1024 0.1536c1.792 1.8944 9.3696 3.7888 11.9808 2.9696l1.28-0.512a189.44 189.44 0 0 0 7.5776-3.4304c9.4208-4.5056 21.3504-10.752 35.9424-19.1488a502.784 502.784 0 0 0 34.304-21.4528 171.1616 171.1616 0 0 0 7.68-5.5808l0.0512-0.1024 0.1024-0.1024a18.6368 18.6368 0 0 0 3.2768-12.1344v-0.1024l-4.1984-13.9264-0.256-1.1264a171.2128 171.2128 0 0 1 18.2784-125.44 171.264 171.264 0 0 1 99.8912-78.8992l1.1264-0.3584 13.6704-3.1744h0.1536c2.56-0.5632 7.9872-6.2464 8.6016-8.9088l0.2048-1.28a528.64 528.64 0 0 0 2.1504-48.7936 551.0656 551.0656 0 0 0-1.4336-40.192 194.7648 194.7648 0 0 0-1.024-10.24c-0.6656-2.6624-6.144-8.3968-8.6016-8.96z m84.7872-4.7104c0.6144 3.4816 1.3824 9.2672 2.048 17.8176 0.9728 12.288 1.536 27.5968 1.6384 46.0288v0.1536c0 18.8416-0.5632 34.304-1.536 46.7968a187.2896 187.2896 0 0 1-1.9456 16.896c-5.9392 33.28-34.816 63.5392-67.6864 71.0656l-11.2128 2.56c-22.528 6.9632-41.728 22.1184-53.76 43.008-11.9808 20.6848-15.36 44.6976-10.24 67.7376l3.5328 11.6224c9.728 32.256-1.8944 72.2432-27.648 94.0032-2.56 2.2016-7.0144 5.632-13.568 10.1376-10.24 7.168-23.3984 15.4624-39.7312 24.8832l-0.1024 0.0512c-16.2816 9.3696-29.952 16.5888-41.216 21.9136a265.4208 265.4208 0 0 1-15.5136 6.7584c-31.744 11.6224-72.3456 1.7408-95.3344-23.04l-7.9872-8.4992a93.3888 93.3888 0 0 0-64-25.2416c-24.1152 0-46.592 9.0112-64 25.088l-7.936 8.5504-0.1024 0.1024c-23.0912 24.576-63.4368 34.4576-95.1296 22.9376a185.3952 185.3952 0 0 1-15.5136-6.7584c-11.264-5.3248-24.9344-12.5952-41.2672-22.016a599.808 599.808 0 0 1-39.7312-24.832 186.8288 186.8288 0 0 1-13.7216-10.1888l-0.0512-0.0512c-25.7024-21.8624-37.376-61.7984-27.5968-93.952l3.328-11.264a94.0544 94.0544 0 0 0-10.24-68.1472v-0.1024a93.0816 93.0816 0 0 0-53.76-42.8544l-11.1616-2.56c-32.9728-7.5264-61.7472-37.7344-67.6864-71.0144a186.8288 186.8288 0 0 1-1.8944-16.896c-1.024-12.4928-1.5872-28.0064-1.5872-46.848 0-18.8928 0.5632-34.4064 1.536-46.848a187.392 187.392 0 0 1 1.9456-16.896c5.9392-33.28 34.8672-63.5904 67.84-71.0656l11.4688-2.6112c22.528-6.9632 41.472-21.9136 53.504-42.752 11.9808-20.8384 15.36-44.8512 10.24-68.0448l-3.4816-11.4688c-9.7792-32.3072 1.8432-72.1408 27.5968-93.9008 2.56-2.2016 6.9632-5.5808 13.5168-10.1376 10.24-7.168 23.3472-15.4624 39.68-24.9856l0.1024-0.0512 0.1536-0.0512c16.2304-9.3696 29.952-16.5888 41.1648-21.9136a268.7488 268.7488 0 0 1 15.5136-6.7584c31.744-11.6224 72.3456-1.7408 95.3344 23.04l8.1408 8.704c17.1008 15.9744 39.7312 25.088 63.8464 25.088 24.064 0 46.3872-8.96 63.5392-24.8832l8.4992-9.0624c23.1424-24.6272 63.488-34.5088 95.232-22.8864h0.1536c1.024 0.4096 2.6112 1.024 4.6592 1.9456 3.072 1.28 6.5536 2.8672 10.6496 4.8128 11.2128 5.376 24.832 12.544 41.0624 21.9136h0.1024c16.384 9.472 29.4912 17.7664 39.7824 24.8832 6.656 4.608 11.1616 7.9872 13.7216 10.1888h0.0512c25.7024 21.9136 37.376 61.952 27.5456 94.1568l-0.1536 0.512-3.7376 11.264a93.952 93.952 0 0 0 63.5392 110.2848l11.8784 2.7136c32.9216 7.4752 61.7472 37.7856 67.6864 70.9632z m-443.904 243.3024a179.2 179.2 0 0 1 0-358.4 179.2 179.2 0 0 1 0 358.4zM512.512 614.4a102.5024 102.5024 0 0 0 102.4-102.3488 102.4 102.4 0 1 0-102.4 102.3488z" fill="#FCFFE7" p-id="1227"></path></svg>